<?xml version="1.0" encoding="UTF-8" standalone="no"?><!DOCTYPE svg PUBLIC "-//W3C//DTD SVG 1.1//EN" "http://www.w3.org/Graphics/SVG/1.1/DTD/svg11.dtd"><svg width="100%" height="100%" viewBox="0 0 1250 834" version="1.1" xmlns="http://www.w3.org/2000/svg" xmlns:xlink="http://www.w3.org/1999/xlink" xml:space="preserve" xmlns:serif="http://www.serif.com/" style="fill-rule:evenodd;clip-rule:evenodd;stroke-linejoin:round;stroke-miterlimit:2;"><g><g><path d="M161.233,278.101c3.968,0 5.951,-3.636 5.951,-10.909l0,-50.676c0,-7.859 -2.858,-11.789 -8.576,-11.789c-5.718,0 -8.577,1.995 -8.577,5.983c-0,1.173 0.204,2.962 0.612,5.367c0.409,2.404 0.613,4.193 0.613,5.366c-0,10.44 -4.376,15.66 -13.128,15.66c-4.084,0 -7.293,-1.319 -9.627,-3.959c-2.334,-2.639 -3.501,-6.187 -3.501,-10.645c-0,-1.525 0.233,-4.282 0.7,-8.27c0.35,-3.05 0.525,-5.865 0.525,-8.446c0,-1.407 -0.175,-4.281 -0.525,-8.622c-0.233,-2.932 -0.35,-5.278 -0.35,-7.038c0,-5.161 2.567,-7.742 7.702,-7.742c2.684,-0 6.068,0.176 10.152,0.528c9.336,0.821 22.405,1.232 39.209,1.232c16.92,-0 30.048,-0.411 39.384,-1.232c4.084,-0.352 7.41,-0.528 9.977,-0.528c5.251,-0 7.877,2.581 7.877,7.742c-0,1.76 -0.146,4.37 -0.438,7.83c-0.292,3.461 -0.437,6.071 -0.437,7.83c-0,1.877 0.175,4.692 0.525,8.446c0.466,4.927 0.7,7.742 0.7,8.446c-0,4.458 -1.196,7.977 -3.588,10.557c-2.393,2.581 -5.573,3.871 -9.54,3.871c-8.752,0 -13.128,-5.044 -13.128,-15.132c-0,-1.408 0.175,-3.284 0.525,-5.63c0.35,-2.347 0.525,-4.106 0.525,-5.279c0,-4.223 -2.567,-6.335 -7.702,-6.335c-3.384,0 -5.776,0.88 -7.176,2.64c-1.4,1.759 -2.101,4.809 -2.101,9.149l0,50.676c0,7.273 1.984,10.909 5.952,10.909c1.283,0 3.18,-0.205 5.689,-0.616c2.508,-0.41 4.405,-0.616 5.688,-0.616c7.002,0 10.503,3.52 10.503,10.558c-0,9.267 -4.376,13.9 -13.128,13.9c-3.384,0 -7.41,-0.234 -12.078,-0.703c-7.002,-0.704 -13.011,-1.056 -18.029,-1.056c-5.135,-0 -11.144,0.352 -18.029,1.056c-4.551,0.469 -8.577,0.703 -12.078,0.703c-8.752,0 -13.128,-4.281 -13.128,-12.844c0,-7.742 3.559,-11.614 10.678,-11.614c1.283,0 3.179,0.206 5.688,0.616c2.509,0.411 4.406,0.616 5.689,0.616Z" style="fill-rule:nonzero;"/><path d="M299.514,209.478l0,18.3l36.759,-0l-0,-12.317c-0,-3.637 -0.059,-5.631 -0.176,-5.983c-0.35,-2.463 -1.458,-3.695 -3.325,-3.695c-0.817,0 -1.517,0.059 -2.101,0.176l-1.575,0c-5.135,0 -7.702,-3.578 -7.702,-10.733c0,-3.871 1.08,-6.98 3.238,-9.326c2.159,-2.346 4.989,-3.519 8.49,-3.519c2.334,-0 5.834,0.293 10.502,0.88c4.668,0.586 8.169,0.88 10.503,0.88c3.034,-0 6.826,-0.235 11.377,-0.704c7.935,-0.821 11.844,-1.232 11.728,-1.232c3.734,0 6.739,1.202 9.014,3.607c2.276,2.405 3.414,5.543 3.414,9.414c-0,3.284 -0.905,6.041 -2.714,8.27c-1.808,2.229 -4.055,3.343 -6.739,3.343c-1.05,-0 -2.479,-0.205 -4.288,-0.616c-1.809,-0.411 -3.18,-0.616 -4.113,-0.616c-2.334,0 -3.851,1.467 -4.551,4.399c-0.234,1.173 -0.351,3.637 -0.351,7.39l0,48.74c0,7.977 1.576,11.965 4.726,11.965c0.934,0 2.334,-0.205 4.201,-0.616c1.868,-0.41 3.268,-0.616 4.201,-0.616c2.684,0 4.96,1.115 6.827,3.344c1.867,2.228 2.801,4.985 2.801,8.27c-0,3.871 -1.138,7.009 -3.414,9.413c-2.275,2.405 -5.28,3.607 -9.014,3.607l-0.7,0c-0.234,-0.117 -0.467,-0.176 -0.701,-0.176c-2.333,0 -5.834,-0.293 -10.502,-0.879c-4.668,-0.587 -8.227,-0.88 -10.677,-0.88c-4.551,-0 -8.402,0.234 -11.553,0.704c-4.784,0.703 -8.168,1.055 -10.152,1.055c-3.384,0 -6.156,-1.202 -8.315,-3.607c-2.158,-2.404 -3.238,-5.542 -3.238,-9.413c0,-7.156 2.567,-10.734 7.702,-10.734c0.7,0 1.225,0.059 1.575,0.176l1.226,0c0.466,0.118 0.758,0.176 0.875,0.176c1.867,0 2.975,-1.29 3.325,-3.871c0.117,-1.29 0.176,-3.284 0.176,-5.982l-0,-17.42l-36.759,-0l0,23.578c0.35,2.464 1.517,3.695 3.501,3.695c0.117,0 0.408,-0.058 0.875,-0.176l1.05,0c0.351,-0.117 0.876,-0.176 1.576,-0.176c5.134,0 7.702,3.578 7.702,10.734c-0,3.871 -1.08,7.009 -3.239,9.413c-2.158,2.405 -4.93,3.607 -8.314,3.607c-2.1,0 -5.28,-0.293 -9.54,-0.879c-4.259,-0.587 -7.497,-0.88 -9.714,-0.88c-5.018,-0 -9.394,0.234 -13.128,0.704c-5.602,0.703 -9.511,1.055 -11.728,1.055c-3.734,0 -6.739,-1.173 -9.014,-3.519c-2.276,-2.346 -3.414,-5.454 -3.414,-9.325c0,-3.285 0.934,-6.042 2.801,-8.27c1.867,-2.229 4.142,-3.344 6.826,-3.344c0.934,0 2.305,0.206 4.114,0.616c1.809,0.411 3.18,0.616 4.113,0.616c3.151,0 4.726,-3.988 4.726,-11.965l0,-48.74c0,-7.859 -1.575,-11.789 -4.726,-11.789c-0.933,0 -2.304,0.205 -4.113,0.616c-1.809,0.411 -3.238,0.616 -4.289,0.616c-2.684,-0 -4.93,-1.114 -6.739,-3.343c-1.808,-2.229 -2.713,-4.986 -2.713,-8.27c0,-3.871 1.167,-6.98 3.501,-9.326c2.334,-2.346 5.368,-3.519 9.102,-3.519c1.167,-0 4.901,0.352 11.203,1.056c4.201,0.469 8.402,0.704 12.602,0.704c3.618,-0 7.002,-0.235 10.153,-0.704c4.667,-0.704 7.993,-1.056 9.977,-1.056c3.501,-0 6.301,1.202 8.402,3.607c2.1,2.405 3.151,5.543 3.151,9.414c-0,7.038 -2.568,10.557 -7.702,10.557l-1.576,0c-0.466,-0.117 -1.108,-0.176 -1.925,-0.176c-1.984,0 -3.151,1.232 -3.501,3.695Z" style="fill-rule:nonzero;"/><path d="M459.675,204.551c-3.851,0 -6.418,0.352 -7.701,1.056c-1.751,1.056 -2.626,3.402 -2.626,7.038l-0,9.854c-0,1.994 0.263,3.49 0.788,4.487c0.525,0.997 1.896,1.496 4.113,1.496c5.135,-0 7.702,-1.877 7.702,-5.631l-0,-2.288c-0.117,-0.703 -0.175,-1.583 -0.175,-2.639c-0,-4.927 2.859,-7.39 8.577,-7.39c5.951,-0 8.927,2.991 8.927,8.974c-0,1.642 -0.117,3.46 -0.35,5.454c-0.467,3.871 -0.701,7.449 -0.701,10.734c0,3.05 0.234,6.921 0.701,11.613c0.466,4.692 0.7,7.977 0.7,9.853c-0,6.921 -3.093,10.382 -9.277,10.382c-5.835,-0 -8.752,-2.991 -8.752,-8.974l-0,-0.88c-0,-0.586 0.116,-1.994 0.35,-4.223c-0,-2.815 -2.509,-4.223 -7.527,-4.223c-3.384,0 -5.076,1.877 -5.076,5.631l-0,13.197c-0,4.105 0.729,6.891 2.188,8.358c1.459,1.466 4.172,2.199 8.139,2.199l10.153,0c7.468,0 12.69,-0.645 15.666,-1.935c2.975,-1.291 4.463,-3.578 4.463,-6.863c0,-1.642 -0.175,-3.607 -0.525,-5.894c-0.35,-2.288 -0.525,-4.194 -0.525,-5.719c-0,-4.34 1.225,-7.742 3.676,-10.205c2.45,-2.464 5.776,-3.695 9.977,-3.695c8.519,-0 12.778,4.692 12.778,14.076c-0,3.05 -0.175,6.276 -0.525,9.678c-0.584,5.63 -0.875,9.149 -0.875,10.557c-0,1.29 0.291,3.812 0.875,7.566c0.35,2.229 0.525,4.516 0.525,6.862c-0,5.514 -3.443,8.27 -10.327,8.27c-2.218,0 -5.893,-0.176 -11.028,-0.527c-8.519,-0.587 -22.113,-0.998 -40.784,-1.232l-15.579,-0c-5.834,-0 -10.677,0.176 -14.528,0.528l-13.303,1.231c-0.117,0 -0.35,0.059 -0.7,0.176l-0.875,0c-3.618,0 -6.564,-1.231 -8.84,-3.695c-2.275,-2.463 -3.413,-5.572 -3.413,-9.325c-0,-3.285 0.904,-6.042 2.713,-8.27c1.809,-2.229 4.114,-3.344 6.914,-3.344c0.934,0 2.334,0.206 4.201,0.616c1.867,0.411 3.209,0.616 4.026,0.616c3.151,0 4.726,-3.988 4.726,-11.965l0,-48.74c0,-7.859 -1.575,-11.789 -4.726,-11.789c-0.7,0 -2.1,0.235 -4.201,0.704c-1.517,0.352 -2.859,0.528 -4.026,0.528c-2.684,-0 -4.959,-1.114 -6.826,-3.343c-1.867,-2.229 -2.801,-4.986 -2.801,-8.27c-0,-8.563 4.259,-12.845 12.778,-12.845c1.984,-0 6.01,0.235 12.078,0.704c9.102,0.704 17.912,1.056 26.431,1.056c0.816,-0 7.818,-0.176 21.004,-0.528c9.569,-0.235 15.87,-0.47 18.904,-0.704c5.018,-0.352 10.269,-0.528 15.754,-0.528c6.535,-0 9.802,2.874 9.802,8.622c0,1.877 -0.204,4.633 -0.612,8.27c-0.409,3.636 -0.613,6.393 -0.613,8.27c-0,1.877 0.263,4.545 0.788,8.006c0.525,3.46 0.787,6.07 0.787,7.83c0,3.402 -1.254,6.276 -3.763,8.622c-2.509,2.346 -5.63,3.519 -9.365,3.519c-8.752,-0 -13.128,-4.516 -13.128,-13.549c0,-1.525 0.263,-3.636 0.788,-6.334c0.525,-2.698 0.788,-4.692 0.788,-5.983c-0,-2.58 -1.342,-4.164 -4.026,-4.751c-0.934,-0.234 -3.384,-0.352 -7.352,-0.352l-17.329,0Z" style="fill-rule:nonzero;"/><path d="M622.112,179.918c11.202,-0 20.946,4.105 29.231,12.317c-0.116,-0.352 -0.175,-0.939 -0.175,-1.76c0,-6.569 3.501,-9.854 10.503,-9.854c3.267,0 5.922,1.027 7.964,3.08c2.042,2.052 3.063,4.721 3.063,8.006c0,1.525 -0.175,3.753 -0.525,6.686c-0.583,4.809 -0.875,8.27 -0.875,10.381c-0,1.525 0.204,3.783 0.613,6.775c0.408,2.991 0.612,5.249 0.612,6.774c0,3.636 -1.313,6.569 -3.938,8.798c-2.626,2.229 -6.039,3.343 -10.24,3.343c-8.869,0 -13.186,-3.695 -12.953,-11.085l0.175,-5.455c0.117,-3.871 -1.459,-7.067 -4.726,-9.589c-3.267,-2.523 -7.41,-3.784 -12.428,-3.784c-15.637,0 -23.455,12.435 -23.455,37.303c-0,12.904 1.896,22.317 5.689,28.241c3.792,5.924 9.831,8.886 18.116,8.886c5.135,-0 9.336,-1.202 12.603,-3.607c3.268,-2.405 4.843,-5.543 4.726,-9.414l-0.175,-6.334c-0.116,-3.637 1.05,-6.569 3.501,-8.798c2.451,-2.229 5.601,-3.343 9.452,-3.343c4.901,-0 8.781,1.642 11.64,4.927c2.859,3.284 4.289,7.742 4.289,13.372c-0,11.144 -4.405,20.265 -13.216,27.361c-8.81,7.097 -20.158,10.646 -34.045,10.646c-17.037,-0 -30.486,-5.455 -40.347,-16.364c-9.86,-10.909 -14.79,-25.807 -14.79,-44.693c-0,-19.473 4.434,-34.81 13.303,-46.013c8.868,-11.202 21.004,-16.803 36.408,-16.803Z" style="fill-rule:nonzero;"/><path d="M762.143,264.025l-23.28,-0c-6.651,-0 -9.977,3.988 -9.977,11.965c-0,1.877 0.992,2.815 2.976,2.815c0.583,-0 1.458,-0.088 2.625,-0.264c1.167,-0.176 2.042,-0.264 2.626,-0.264c4.317,0 6.476,3.461 6.476,10.382c0,3.753 -0.992,6.803 -2.975,9.149c-1.984,2.346 -4.61,3.519 -7.877,3.519c-1.634,0 -5.251,-0.41 -10.853,-1.231c-2.45,-0.352 -5.893,-0.528 -10.327,-0.528c-4.784,-0 -8.519,0.176 -11.203,0.528c-6.184,0.821 -9.86,1.231 -11.027,1.231c-3.618,0 -6.564,-1.114 -8.84,-3.343c-2.275,-2.229 -3.413,-5.161 -3.413,-8.798c0,-8.211 3.093,-12.317 9.277,-12.317c0.7,0 1.809,0.088 3.326,0.264c1.517,0.176 2.626,0.264 3.326,0.264c2.217,0 4.026,-1.231 5.426,-3.695c0.35,-0.704 1.167,-2.874 2.451,-6.51l24.155,-69.151c2.801,-7.859 5.951,-12.786 9.452,-14.78c2.567,-1.291 8.227,-1.936 16.979,-1.936c9.802,0 15.987,0.616 18.554,1.848c2.567,1.231 4.668,4.663 6.302,10.293l22.405,74.958c1.75,5.982 3.792,8.973 6.126,8.973c0.7,0 1.925,-0.176 3.676,-0.528l1.925,0c6.535,0 9.802,3.872 9.802,11.614c0,3.871 -1.166,6.979 -3.5,9.325c-2.334,2.346 -5.368,3.519 -9.102,3.519c-1.634,0 -3.793,-0.176 -6.477,-0.527c-3.267,-0.587 -5.426,-0.88 -6.476,-0.88c-2.568,-0.235 -5.893,-0.352 -9.978,-0.352c-4.434,-0 -7.41,0.117 -8.927,0.352c-5.951,0.938 -9.685,1.407 -11.202,1.407c-3.151,0 -5.747,-1.202 -7.789,-3.607c-2.042,-2.404 -3.064,-5.425 -3.064,-9.061c0,-6.921 2.218,-10.382 6.652,-10.382c0.583,0 1.459,0.088 2.626,0.264c1.166,0.176 2.042,0.264 2.625,0.264c2.217,-0 3.326,-1.232 3.326,-3.695c-0,-3.167 -0.642,-5.807 -1.926,-7.918c-1.283,-2.112 -2.917,-3.167 -4.901,-3.167Zm-2.625,-26.922l-8.402,-36.071l-10.853,37.479c-0.116,0.352 -0.175,0.762 -0.175,1.232c0,1.407 1.459,2.111 4.376,2.111l10.853,0c3.034,0 4.551,-0.821 4.551,-2.463c-0,0.117 -0.117,-0.645 -0.35,-2.288Z" style="fill-rule:nonzero;"/><path d="M898.674,193.29l14.528,64.224l15.229,-61.584c1.283,-5.162 2.713,-8.71 4.288,-10.646c1.576,-1.935 3.822,-2.903 6.739,-2.903c2.567,-0 6.477,0.293 11.728,0.88c5.251,0.586 9.219,0.88 11.903,0.88c2.8,-0 9.743,-0.47 20.829,-1.408c3.151,-0.235 5.485,-0.352 7.002,-0.352c3.851,-0 6.943,1.144 9.277,3.431c2.334,2.288 3.501,5.425 3.501,9.414c-0,3.284 -0.905,6.041 -2.713,8.27c-1.809,2.229 -4.055,3.343 -6.739,3.343c-1.051,-0 -2.509,-0.205 -4.376,-0.616c-1.867,-0.411 -3.209,-0.616 -4.026,-0.616c-3.151,0 -4.726,3.93 -4.726,11.789l-0,48.74c-0,7.977 1.517,11.965 4.551,11.965c0.933,0 2.334,-0.205 4.201,-0.616c1.867,-0.41 3.267,-0.616 4.201,-0.616c2.683,0 4.959,1.115 6.826,3.344c1.867,2.228 2.801,4.985 2.801,8.27c-0,3.988 -1.167,7.126 -3.501,9.413c-2.334,2.288 -5.426,3.431 -9.277,3.431c-2.217,0 -5.952,-0.352 -11.203,-1.055c-3.5,-0.47 -7.001,-0.704 -10.502,-0.704c-2.217,-0 -5.485,0.293 -9.802,0.88c-4.318,0.586 -7.585,0.879 -9.802,0.879c-3.501,0 -6.331,-1.173 -8.49,-3.519c-2.159,-2.346 -3.238,-5.454 -3.238,-9.325c-0,-7.273 2.392,-10.91 7.177,-10.91c0.7,0 1.225,0.059 1.575,0.176l1.225,0c0.467,0.118 0.759,0.176 0.875,0.176c1.867,0 2.976,-1.29 3.326,-3.871c0.117,-1.173 0.175,-3.167 0.175,-5.982l0,-66.336l-24.33,86.571c-2.101,7.507 -5.543,11.261 -10.328,11.261l-11.202,-0c-4.668,-0 -7.877,-3.343 -9.627,-10.03l-23.281,-87.802l0,66.336c0,5.513 0.526,8.622 1.576,9.325c0.35,0.352 0.992,0.528 1.925,0.528c0.234,0 0.584,-0.058 1.05,-0.176l1.051,0c0.35,-0.117 0.875,-0.176 1.575,-0.176c4.668,0 7.002,3.578 7.002,10.734c-0,3.988 -1.051,7.155 -3.151,9.501c-2.101,2.346 -4.901,3.519 -8.402,3.519c-1.634,0 -3.734,-0.176 -6.301,-0.527c-3.268,-0.47 -5.31,-0.763 -6.127,-0.88c-2.45,-0.235 -5.251,-0.352 -8.402,-0.352c-3.967,-0 -7.293,0.176 -9.977,0.528c-7.235,0.938 -10.852,1.407 -10.852,1.407c-3.618,0 -6.594,-1.231 -8.927,-3.695c-2.334,-2.463 -3.501,-5.572 -3.501,-9.325c-0,-3.402 0.904,-6.188 2.713,-8.358c1.809,-2.17 4.113,-3.256 6.914,-3.256c0.934,0 2.305,0.206 4.113,0.616c1.809,0.411 3.18,0.616 4.114,0.616c2.334,0 3.792,-1.525 4.376,-4.575c0.233,-1.173 0.35,-3.636 0.35,-7.39l-0,-48.74c-0,-3.753 -0.117,-6.158 -0.35,-7.214c-0.584,-3.05 -2.042,-4.575 -4.376,-4.575c-0.934,0 -2.305,0.205 -4.114,0.616c-1.808,0.411 -3.238,0.616 -4.288,0.616c-2.684,-0 -4.93,-1.114 -6.739,-3.343c-1.809,-2.229 -2.713,-4.986 -2.713,-8.27c-0,-8.563 4.317,-12.845 12.953,-12.845c2.8,-0 7.468,0.293 14.003,0.88c6.535,0.586 11.436,0.88 14.703,0.88c5.251,-0 10.736,-0.352 16.454,-1.056c3.851,-0.469 6.885,-0.704 9.102,-0.704c2.917,-0 4.959,0.704 6.126,2.111c1.167,1.408 2.276,4.341 3.326,8.798Z" style="fill-rule:nonzero;"/><path d="M1068.11,261.209c-3.151,-0.117 -4.726,1.643 -4.726,5.279l0,5.631c0,3.988 1.751,5.982 5.251,5.982c1.401,0 3.151,-0.176 5.251,-0.528c2.568,-0.469 4.727,-0.704 6.477,-0.704c2.917,0 5.251,1.056 7.002,3.168c1.75,2.111 2.625,4.926 2.625,8.446c0,3.871 -1.167,6.979 -3.501,9.325c-2.334,2.346 -5.368,3.519 -9.102,3.519c-3.267,0 -8.11,-0.293 -14.528,-0.879c-6.418,-0.587 -11.261,-0.88 -14.528,-0.88c-5.018,-0 -9.219,0.176 -12.603,0.528l-8.577,0.879c-2.334,0.235 -3.909,0.352 -4.726,0.352c-3.734,0 -6.739,-1.173 -9.015,-3.519c-2.275,-2.346 -3.413,-5.454 -3.413,-9.325c0,-3.285 0.904,-6.042 2.713,-8.27c1.809,-2.229 4.055,-3.344 6.739,-3.344c1.05,0 2.509,0.206 4.376,0.616c1.867,0.411 3.209,0.616 4.026,0.616c3.151,0 4.726,-3.988 4.726,-11.965l0,-48.74c0,-3.753 -0.116,-6.158 -0.35,-7.214c-0.583,-3.05 -2.042,-4.575 -4.376,-4.575c-0.933,0 -2.305,0.205 -4.113,0.616c-1.809,0.411 -3.239,0.616 -4.289,0.616c-2.684,-0 -4.93,-1.114 -6.739,-3.343c-1.809,-2.229 -2.713,-4.986 -2.713,-8.27c0,-3.871 1.167,-7.009 3.501,-9.414c2.334,-2.405 5.368,-3.607 9.102,-3.607l0.525,0c0.233,0.117 0.467,0.176 0.7,0.176c2.801,-0 7.06,0.293 12.778,0.88c5.718,0.586 10.036,0.88 12.953,0.88c5.601,-0 11.728,-0.235 18.379,-0.704c8.402,-0.587 13.186,-0.88 14.353,-0.88c12.72,-0 23.018,3.607 30.895,10.821c7.877,7.214 11.815,16.687 11.815,28.417c0,12.2 -4.055,21.877 -12.165,29.033c-8.11,7.156 -19.167,10.733 -33.17,10.733c-1.167,0 -3.384,-0.058 -6.652,-0.176l-4.901,-0.176Zm-4.726,-29.736c0,3.284 0.292,5.308 0.875,6.07c0.584,0.763 2.159,1.203 4.726,1.32l2.801,0.176c13.77,0.821 20.655,-4.634 20.655,-16.364c-0,-11.261 -6.185,-16.892 -18.555,-16.892c-3.034,0 -5.134,0.176 -6.301,0.528c-2.1,0.587 -3.384,1.994 -3.851,4.223c-0.233,1.173 -0.35,2.933 -0.35,5.279l0,15.66Z" style="fill-rule:nonzero;"/><path d="M287.524,370.478l11.728,75.661l11.027,-58.065c0.35,-1.291 0.525,-2.405 0.525,-3.343c0,-2.112 -0.992,-3.168 -2.975,-3.168c-0.35,0 -1.109,0.118 -2.276,0.352l-1.05,0c-0.467,0.118 -0.817,0.176 -1.05,0.176c-4.435,0 -6.652,-3.519 -6.652,-10.557c0,-8.798 3.909,-13.197 11.728,-13.197c1.984,0 4.784,0.235 8.402,0.704c5.484,0.704 9.16,1.056 11.027,1.056c0.234,-0 4.901,-0.528 14.003,-1.584c1.517,-0.117 2.801,-0.176 3.851,-0.176c3.501,0 6.389,1.203 8.665,3.607c2.275,2.405 3.413,5.426 3.413,9.062c-0,3.167 -0.846,5.924 -2.538,8.27c-1.692,2.346 -3.705,3.519 -6.039,3.519c-1.284,0 -2.48,-0.205 -3.588,-0.616c-1.109,-0.41 -2.072,-0.616 -2.888,-0.616c-1.984,0 -3.443,1.467 -4.376,4.399c-0,0.118 -0.526,2.405 -1.576,6.863l-15.928,71.086c-1.167,4.809 -2.043,7.742 -2.626,8.798c-1.284,2.463 -3.676,3.695 -7.177,3.695c-1.283,-0 -3.15,-0.118 -5.601,-0.352c-1.167,-0.117 -3.209,-0.176 -6.126,-0.176c-2.451,-0 -4.61,0.059 -6.477,0.176l-5.601,0.352l-0.875,-0c-3.034,-0 -5.135,-1.056 -6.302,-3.167c-1.167,-2.112 -2.333,-6.921 -3.5,-14.429l-9.453,-61.409l-9.627,61.409c-1.167,7.508 -2.334,12.317 -3.5,14.429c-1.167,2.111 -3.268,3.167 -6.302,3.167c-1.05,-0 -3.209,-0.118 -6.476,-0.352c-1.634,-0.117 -3.735,-0.176 -6.302,-0.176c-1.283,-0 -3.238,0.088 -5.864,0.264c-2.625,0.176 -4.58,0.264 -5.863,0.264c-3.501,-0 -5.893,-1.232 -7.177,-3.695c-0.583,-0.939 -1.459,-3.871 -2.626,-8.798l-2.1,-8.974l-14.003,-62.112c-0.467,-2.229 -0.934,-4.517 -1.401,-6.863c-1.05,-2.932 -2.508,-4.399 -4.376,-4.399c-0.933,0 -1.925,0.176 -2.975,0.528c-1.4,0.469 -2.567,0.704 -3.501,0.704c-2.334,0 -4.376,-1.173 -6.126,-3.519c-1.751,-2.346 -2.626,-5.161 -2.626,-8.446c0,-3.636 1.167,-6.628 3.501,-8.974c2.334,-2.346 5.251,-3.519 8.752,-3.519c1.984,0 4.93,0.293 8.839,0.88c3.91,0.586 6.914,0.88 9.015,0.88c1.867,-0 5.543,-0.352 11.027,-1.056c3.618,-0.469 6.418,-0.704 8.402,-0.704c7.819,0 11.728,4.164 11.728,12.493c-0,7.508 -2.217,11.261 -6.652,11.261c-0.233,0 -0.583,-0.058 -1.05,-0.176l-1.225,0c-1.167,-0.234 -1.867,-0.352 -2.101,-0.352c-1.983,0 -2.975,1.115 -2.975,3.344c-0,0.938 0.116,1.994 0.35,3.167l11.202,58.065l11.553,-75.661c0.817,-5.044 1.692,-8.328 2.625,-9.853c0.934,-1.525 2.568,-2.288 4.902,-2.288c1.4,0 3.559,0.147 6.476,0.44c2.917,0.293 5.076,0.44 6.476,0.44c1.401,-0 3.53,-0.147 6.389,-0.44c2.859,-0.293 4.989,-0.44 6.389,-0.44c2.918,0 4.901,1.349 5.952,4.047c0.35,0.939 0.875,3.637 1.575,8.094Z" style="fill-rule:nonzero;"/><path d="M377.494,454.057c2.334,0 3.793,-1.525 4.376,-4.575c0.234,-1.173 0.35,-3.636 0.35,-7.39l0,-48.74c0,-3.753 -0.116,-6.158 -0.35,-7.214c-0.583,-3.05 -2.042,-4.575 -4.376,-4.575c-0.933,0 -2.304,0.206 -4.113,0.616c-1.809,0.411 -3.238,0.616 -4.289,0.616c-2.684,0 -4.93,-1.114 -6.739,-3.343c-1.808,-2.229 -2.713,-4.985 -2.713,-8.27c0,-3.988 1.138,-7.126 3.414,-9.414c2.275,-2.287 5.338,-3.431 9.189,-3.431c1.751,0 5.835,0.352 12.253,1.056c4.318,0.469 8.518,0.704 12.603,0.704c3.267,-0 7.964,-0.294 14.09,-0.88c6.127,-0.587 10.182,-0.88 12.166,-0.88c8.518,0 12.778,4.282 12.778,12.845c-0,3.285 -0.905,6.041 -2.714,8.27c-1.808,2.229 -4.055,3.343 -6.739,3.343c-0.933,0 -2.333,-0.205 -4.201,-0.616c-1.867,-0.41 -3.267,-0.616 -4.201,-0.616c-3.15,0 -4.726,3.93 -4.726,11.789l0,48.74c0,7.977 1.576,11.965 4.726,11.965c0.934,0 2.334,-0.205 4.201,-0.615c1.868,-0.411 3.268,-0.616 4.201,-0.616c2.684,-0 4.931,1.114 6.739,3.343c1.809,2.229 2.714,4.985 2.714,8.27c-0,3.754 -1.138,6.862 -3.414,9.325c-2.275,2.464 -5.163,3.696 -8.664,3.696c-0.7,-0 -1.225,-0.059 -1.576,-0.176l-11.027,-1.408c-2.801,-0.352 -5.893,-0.528 -9.277,-0.528c-5.251,0 -10.736,0.293 -16.454,0.88c-6.885,0.704 -11.377,1.056 -13.478,1.056c-3.734,-0 -6.768,-1.173 -9.102,-3.52c-2.334,-2.346 -3.501,-5.454 -3.501,-9.325c0,-3.402 0.905,-6.188 2.713,-8.358c1.809,-2.17 4.114,-3.255 6.914,-3.255c0.934,-0 2.305,0.205 4.114,0.616c1.809,0.41 3.18,0.615 4.113,0.615Z" style="fill-rule:nonzero;"/><path d="M478.667,454.057c3.968,0 5.951,-3.636 5.951,-10.909l0,-50.675c0,-7.86 -2.859,-11.789 -8.577,-11.789c-5.717,-0 -8.576,1.994 -8.576,5.982c-0,1.173 0.204,2.962 0.612,5.367c0.409,2.405 0.613,4.193 0.613,5.366c-0,10.441 -4.376,15.661 -13.128,15.661c-4.084,-0 -7.293,-1.32 -9.627,-3.959c-2.334,-2.64 -3.501,-6.188 -3.501,-10.646c-0,-1.525 0.233,-4.281 0.7,-8.27c0.35,-3.05 0.525,-5.865 0.525,-8.446c0,-1.407 -0.175,-4.281 -0.525,-8.621c-0.233,-2.933 -0.35,-5.279 -0.35,-7.039c0,-5.161 2.567,-7.742 7.702,-7.742c2.684,0 6.068,0.176 10.152,0.528c9.335,0.821 22.405,1.232 39.209,1.232c16.92,-0 30.048,-0.411 39.384,-1.232c4.084,-0.352 7.41,-0.528 9.977,-0.528c5.251,0 7.877,2.581 7.877,7.742c-0,1.76 -0.146,4.37 -0.438,7.83c-0.292,3.461 -0.437,6.071 -0.437,7.83c-0,1.877 0.175,4.693 0.525,8.446c0.466,4.927 0.7,7.742 0.7,8.446c-0,4.458 -1.196,7.977 -3.589,10.558c-2.392,2.58 -5.572,3.871 -9.539,3.871c-8.752,-0 -13.128,-5.045 -13.128,-15.133c-0,-1.407 0.175,-3.284 0.525,-5.63c0.35,-2.346 0.525,-4.106 0.525,-5.279c0,-4.223 -2.567,-6.334 -7.702,-6.334c-3.384,-0 -5.776,0.879 -7.176,2.639c-1.401,1.76 -2.101,4.809 -2.101,9.15l0,50.675c0,7.273 1.984,10.909 5.952,10.909c1.283,0 3.18,-0.205 5.688,-0.615c2.509,-0.411 4.406,-0.616 5.689,-0.616c7.002,-0 10.503,3.519 10.503,10.557c-0,9.267 -4.376,13.901 -13.128,13.901c-3.384,-0 -7.41,-0.235 -12.078,-0.704c-7.002,-0.704 -13.011,-1.056 -18.029,-1.056c-5.135,0 -11.144,0.352 -18.029,1.056c-4.551,0.469 -8.577,0.704 -12.078,0.704c-8.752,-0 -13.128,-4.282 -13.128,-12.845c0,-7.742 3.559,-11.613 10.678,-11.613c1.283,-0 3.179,0.205 5.688,0.616c2.509,0.41 4.405,0.615 5.689,0.615Z" style="fill-rule:nonzero;"/><path d="M616.948,385.434l0,18.3l36.758,-0l0,-12.317c0,-3.636 -0.058,-5.631 -0.175,-5.983c-0.35,-2.463 -1.458,-3.695 -3.325,-3.695c-0.817,0 -1.517,0.059 -2.101,0.176l-1.575,0c-5.135,0 -7.702,-3.577 -7.702,-10.733c0,-3.871 1.08,-6.98 3.238,-9.326c2.159,-2.346 4.989,-3.519 8.49,-3.519c2.334,0 5.834,0.293 10.502,0.88c4.668,0.586 8.169,0.88 10.502,0.88c3.034,-0 6.827,-0.235 11.378,-0.704c7.935,-0.821 11.844,-1.232 11.728,-1.232c3.734,0 6.739,1.203 9.014,3.607c2.276,2.405 3.413,5.543 3.413,9.414c0,3.285 -0.904,6.041 -2.713,8.27c-1.808,2.229 -4.055,3.343 -6.739,3.343c-1.05,0 -2.479,-0.205 -4.288,-0.616c-1.809,-0.41 -3.18,-0.616 -4.114,-0.616c-2.333,0 -3.85,1.467 -4.551,4.399c-0.233,1.173 -0.35,3.637 -0.35,7.39l0,48.74c0,7.977 1.576,11.965 4.726,11.965c0.934,0 2.334,-0.205 4.201,-0.615c1.867,-0.411 3.268,-0.616 4.201,-0.616c2.684,-0 4.96,1.114 6.827,3.343c1.867,2.229 2.8,4.985 2.8,8.27c0,3.871 -1.137,7.009 -3.413,9.413c-2.275,2.405 -5.28,3.608 -9.014,3.608l-0.7,-0c-0.234,-0.118 -0.467,-0.176 -0.701,-0.176c-2.333,-0 -5.834,-0.294 -10.502,-0.88c-4.668,-0.587 -8.227,-0.88 -10.677,-0.88c-4.551,0 -8.402,0.235 -11.553,0.704c-4.784,0.704 -8.169,1.056 -10.152,1.056c-3.384,-0 -6.156,-1.203 -8.315,-3.608c-2.158,-2.404 -3.238,-5.542 -3.238,-9.413c0,-7.156 2.567,-10.734 7.702,-10.734c0.7,0 1.225,0.059 1.575,0.176l1.225,0c0.467,0.118 0.759,0.176 0.876,0.176c1.867,0 2.975,-1.29 3.325,-3.871c0.117,-1.29 0.175,-3.284 0.175,-5.982l0,-17.42l-36.758,0l0,23.578c0.35,2.464 1.517,3.695 3.501,3.695c0.117,0 0.408,-0.058 0.875,-0.176l1.05,0c0.35,-0.117 0.876,-0.176 1.576,-0.176c5.134,0 7.701,3.578 7.701,10.734c0,3.871 -1.079,7.009 -3.238,9.413c-2.159,2.405 -4.93,3.608 -8.314,3.608c-2.101,-0 -5.28,-0.294 -9.54,-0.88c-4.259,-0.587 -7.497,-0.88 -9.714,-0.88c-5.018,0 -9.394,0.235 -13.128,0.704c-5.602,0.704 -9.511,1.056 -11.728,1.056c-3.734,-0 -6.739,-1.173 -9.015,-3.52c-2.275,-2.346 -3.413,-5.454 -3.413,-9.325c0,-3.285 0.934,-6.041 2.801,-8.27c1.867,-2.229 4.142,-3.343 6.826,-3.343c0.934,-0 2.305,0.205 4.114,0.616c1.809,0.41 3.18,0.615 4.113,0.615c3.151,0 4.726,-3.988 4.726,-11.965l0,-48.74c0,-7.859 -1.575,-11.789 -4.726,-11.789c-0.933,0 -2.304,0.206 -4.113,0.616c-1.809,0.411 -3.238,0.616 -4.289,0.616c-2.684,0 -4.93,-1.114 -6.739,-3.343c-1.808,-2.229 -2.713,-4.985 -2.713,-8.27c0,-3.871 1.167,-6.98 3.501,-9.326c2.334,-2.346 5.368,-3.519 9.102,-3.519c1.167,0 4.901,0.352 11.203,1.056c4.2,0.469 8.401,0.704 12.602,0.704c3.618,-0 7.002,-0.235 10.153,-0.704c4.667,-0.704 7.993,-1.056 9.977,-1.056c3.501,0 6.301,1.203 8.402,3.607c2.1,2.405 3.15,5.543 3.15,9.414c0,7.038 -2.567,10.557 -7.701,10.557l-1.576,0c-0.466,-0.117 -1.108,-0.176 -1.925,-0.176c-1.984,0 -3.151,1.232 -3.501,3.695Z" style="fill-rule:nonzero;"/><path d="M870.755,370.126l30.807,75.31l0,-52.084c0,-7.859 -1.517,-11.789 -4.551,-11.789c-0.817,0 -2.013,0.206 -3.588,0.616c-1.575,0.411 -2.772,0.616 -3.588,0.616c-2.451,0 -4.522,-1.114 -6.214,-3.343c-1.692,-2.229 -2.538,-4.985 -2.538,-8.27c-0,-3.871 1.108,-6.98 3.325,-9.326c2.218,-2.346 5.135,-3.519 8.752,-3.519c1.867,0 5.076,0.293 9.628,0.88c4.551,0.586 8.576,0.88 12.077,0.88c3.151,-0 6.827,-0.235 11.028,-0.704c6.301,-0.704 10.21,-1.056 11.727,-1.056c3.735,0 6.769,1.173 9.102,3.519c2.334,2.346 3.501,5.455 3.501,9.326c0,3.285 -0.933,6.041 -2.8,8.27c-1.868,2.229 -4.143,3.343 -6.827,3.343c-1.05,0 -2.451,-0.205 -4.201,-0.616c-1.75,-0.41 -3.092,-0.616 -4.026,-0.616c-2.334,0 -3.851,1.467 -4.551,4.399c-0.233,1.173 -0.35,3.637 -0.35,7.39l0,71.615c0,7.742 -3.151,11.613 -9.452,11.613c-1.167,-0 -2.947,-0.088 -5.339,-0.264c-2.392,-0.176 -4.172,-0.264 -5.338,-0.264c-0.117,-0 -2.976,0.117 -8.577,0.352l-3.851,-0c-3.384,-0 -5.893,-0.821 -7.527,-2.464c-0.934,-0.938 -2.275,-3.46 -4.026,-7.566l-33.782,-77.42l-0,53.138c-0,7.977 1.517,11.965 4.551,11.965c0.816,0 2.071,-0.205 3.763,-0.615c1.692,-0.411 2.946,-0.616 3.763,-0.616c2.451,-0 4.522,1.114 6.214,3.343c1.692,2.229 2.538,4.985 2.538,8.27c0,8.563 -4.084,12.845 -12.253,12.845c-2.333,-0 -6.184,-0.352 -11.552,-1.056c-3.618,-0.469 -7.235,-0.704 -10.853,-0.704c-3.034,0 -7.118,0.293 -12.252,0.88c-5.135,0.586 -8.402,0.88 -9.803,0.88c-8.518,-0 -12.777,-4.282 -12.777,-12.845c-0,-3.285 0.904,-6.041 2.713,-8.27c1.808,-2.229 4.055,-3.343 6.739,-3.343c1.05,-0 2.479,0.205 4.288,0.616c1.809,0.41 3.18,0.615 4.114,0.615c3.15,0 4.726,-3.988 4.726,-11.965l-0,-48.74c-0,-7.859 -1.576,-11.789 -4.726,-11.789c-0.934,0 -2.305,0.206 -4.114,0.616c-1.809,0.411 -3.238,0.616 -4.288,0.616c-2.684,0 -4.931,-1.114 -6.739,-3.343c-1.809,-2.229 -2.713,-4.985 -2.713,-8.27c-0,-3.871 1.167,-6.98 3.5,-9.326c2.334,-2.346 5.368,-3.519 9.102,-3.519c2.451,0 6.01,0.293 10.678,0.88c4.668,0.586 8.343,0.88 11.027,0.88c2.217,-0 6.01,-0.235 11.378,-0.704c2.45,-0.117 5.251,-0.352 8.402,-0.704c1.4,-0.235 2.917,-0.352 4.551,-0.352c3.15,0 5.601,1.232 7.351,3.695c0.701,0.939 1.984,3.637 3.851,8.094Z" style="fill-rule:nonzero;"/><path d="M1011.66,479.571c-17.737,0 -31.449,-5.396 -41.134,-16.188c-9.686,-10.792 -14.529,-26.1 -14.529,-45.925c0,-19.12 4.814,-34.164 14.441,-45.132c9.627,-10.968 22.901,-16.452 39.822,-16.452c17.737,-0 31.565,5.337 41.484,16.012c9.919,10.674 14.878,25.572 14.878,44.693c0,19.824 -4.813,35.279 -14.44,46.364c-9.628,11.085 -23.135,16.628 -40.522,16.628Zm-0.175,-99.063c-15.17,-0 -22.755,12.434 -22.755,37.302c-0,11.848 1.459,20.646 4.376,26.394c3.617,7.155 9.685,10.733 18.204,10.733c15.053,0 22.58,-12.082 22.58,-36.247c0,-13.373 -1.78,-23.079 -5.339,-29.121c-3.559,-6.041 -9.248,-9.061 -17.066,-9.061Z" style="fill-rule:nonzero;"/><path d="M392.023,546.082l30.807,75.31l-0,-52.083c-0,-7.86 -1.517,-11.789 -4.552,-11.789c-0.816,-0 -2.012,0.205 -3.588,0.615c-1.575,0.411 -2.771,0.616 -3.588,0.616c-2.451,0 -4.522,-1.114 -6.214,-3.343c-1.692,-2.229 -2.538,-4.985 -2.538,-8.27c-0,-3.871 1.108,-6.979 3.326,-9.325c2.217,-2.347 5.134,-3.52 8.752,-3.52c1.867,0 5.076,0.294 9.627,0.88c4.551,0.587 8.577,0.88 12.078,0.88c3.15,-0 6.826,-0.235 11.027,-0.704c6.301,-0.704 10.211,-1.056 11.728,-1.056c3.734,0 6.768,1.173 9.102,3.52c2.334,2.346 3.5,5.454 3.5,9.325c0,3.285 -0.933,6.041 -2.8,8.27c-1.867,2.229 -4.143,3.343 -6.827,3.343c-1.05,0 -2.45,-0.205 -4.201,-0.616c-1.75,-0.41 -3.092,-0.615 -4.026,-0.615c-2.333,-0 -3.85,1.466 -4.551,4.399c-0.233,1.173 -0.35,3.636 -0.35,7.39l0,71.614c0,7.742 -3.15,11.613 -9.452,11.613c-1.167,-0 -2.946,-0.088 -5.338,-0.264c-2.393,-0.176 -4.172,-0.264 -5.339,-0.264c-0.117,0 -2.976,0.117 -8.577,0.352l-3.851,-0c-3.384,-0 -5.893,-0.821 -7.527,-2.463c-0.933,-0.939 -2.275,-3.461 -4.026,-7.567l-33.782,-77.42l-0,53.139c-0,7.976 1.517,11.965 4.551,11.965c0.817,-0 2.071,-0.206 3.763,-0.616c1.692,-0.411 2.947,-0.616 3.764,-0.616c2.45,-0 4.521,1.114 6.213,3.343c1.692,2.229 2.539,4.985 2.539,8.27c-0,8.563 -4.085,12.845 -12.253,12.845c-2.334,-0 -6.185,-0.352 -11.553,-1.056c-3.617,-0.469 -7.235,-0.704 -10.852,-0.704c-3.034,0 -7.119,0.293 -12.253,0.88c-5.135,0.587 -8.402,0.88 -9.802,0.88c-8.519,-0 -12.778,-4.282 -12.778,-12.845c-0,-3.285 0.904,-6.041 2.713,-8.27c1.809,-2.229 4.055,-3.343 6.739,-3.343c1.05,-0 2.48,0.205 4.288,0.616c1.809,0.41 3.18,0.616 4.114,0.616c3.151,-0 4.726,-3.989 4.726,-11.965l-0,-48.74c-0,-7.86 -1.575,-11.789 -4.726,-11.789c-0.934,-0 -2.305,0.205 -4.114,0.615c-1.808,0.411 -3.238,0.616 -4.288,0.616c-2.684,0 -4.93,-1.114 -6.739,-3.343c-1.809,-2.229 -2.713,-4.985 -2.713,-8.27c-0,-3.871 1.167,-6.979 3.501,-9.325c2.334,-2.347 5.368,-3.52 9.102,-3.52c2.45,0 6.009,0.294 10.677,0.88c4.668,0.587 8.344,0.88 11.028,0.88c2.217,-0 6.009,-0.235 11.377,-0.704c2.451,-0.117 5.251,-0.352 8.402,-0.704c1.4,-0.234 2.917,-0.352 4.551,-0.352c3.151,0 5.601,1.232 7.352,3.695c0.7,0.939 1.983,3.637 3.851,8.094Z" style="fill-rule:nonzero;"/><path d="M555.509,615.937l-23.28,0c-6.651,0 -9.977,3.988 -9.977,11.965c-0,1.877 0.992,2.815 2.976,2.815c0.583,0 1.458,-0.088 2.625,-0.264c1.167,-0.176 2.042,-0.263 2.626,-0.263c4.317,-0 6.476,3.46 6.476,10.381c0,3.754 -0.992,6.804 -2.975,9.15c-1.984,2.346 -4.61,3.519 -7.877,3.519c-1.634,-0 -5.251,-0.411 -10.853,-1.232c-2.45,-0.352 -5.893,-0.528 -10.327,-0.528c-4.784,0 -8.519,0.176 -11.203,0.528c-6.184,0.821 -9.86,1.232 -11.027,1.232c-3.617,-0 -6.564,-1.115 -8.84,-3.343c-2.275,-2.229 -3.413,-5.162 -3.413,-8.798c0,-8.211 3.093,-12.317 9.277,-12.317c0.7,-0 1.809,0.088 3.326,0.264c1.517,0.176 2.626,0.264 3.326,0.264c2.217,-0 4.026,-1.232 5.426,-3.695c0.35,-0.704 1.167,-2.874 2.451,-6.511l24.155,-69.151c2.801,-7.859 5.951,-12.786 9.452,-14.78c2.567,-1.29 8.227,-1.935 16.979,-1.935c9.802,-0 15.987,0.615 18.554,1.847c2.567,1.232 4.668,4.663 6.302,10.294l22.405,74.957c1.75,5.982 3.792,8.974 6.126,8.974c0.7,-0 1.925,-0.176 3.676,-0.528l1.925,-0c6.535,-0 9.802,3.871 9.802,11.613c0,3.871 -1.166,6.98 -3.5,9.326c-2.334,2.346 -5.368,3.519 -9.102,3.519c-1.634,-0 -3.793,-0.176 -6.477,-0.528c-3.267,-0.587 -5.426,-0.88 -6.476,-0.88c-2.568,-0.234 -5.893,-0.352 -9.978,-0.352c-4.434,0 -7.41,0.118 -8.927,0.352c-5.951,0.939 -9.685,1.408 -11.202,1.408c-3.151,-0 -5.747,-1.203 -7.789,-3.607c-2.042,-2.405 -3.064,-5.426 -3.064,-9.062c0,-6.921 2.218,-10.381 6.652,-10.381c0.583,-0 1.459,0.087 2.626,0.263c1.166,0.176 2.042,0.264 2.625,0.264c2.217,0 3.326,-1.231 3.326,-3.695c-0,-3.167 -0.642,-5.806 -1.926,-7.918c-1.283,-2.111 -2.917,-3.167 -4.901,-3.167Zm-2.625,-26.921l-8.402,-36.071l-10.853,37.478c-0.116,0.352 -0.175,0.763 -0.175,1.232c0,1.408 1.459,2.112 4.376,2.112l10.853,-0c3.034,-0 4.551,-0.822 4.551,-2.464c-0,0.117 -0.117,-0.645 -0.35,-2.287Z" style="fill-rule:nonzero;"/><path d="M692.04,545.203l14.528,64.224l15.229,-61.585c1.283,-5.161 2.713,-8.71 4.288,-10.645c1.576,-1.936 3.822,-2.904 6.739,-2.904c2.568,0 6.477,0.294 11.728,0.88c5.251,0.587 9.219,0.88 11.903,0.88c2.8,-0 9.743,-0.469 20.829,-1.408c3.151,-0.234 5.485,-0.352 7.002,-0.352c3.851,0 6.943,1.144 9.277,3.432c2.334,2.287 3.501,5.425 3.501,9.413c-0,3.285 -0.905,6.041 -2.713,8.27c-1.809,2.229 -4.055,3.343 -6.739,3.343c-1.051,0 -2.509,-0.205 -4.376,-0.616c-1.867,-0.41 -3.209,-0.615 -4.026,-0.615c-3.151,-0 -4.726,3.929 -4.726,11.789l-0,48.74c-0,7.976 1.517,11.965 4.551,11.965c0.933,-0 2.334,-0.206 4.201,-0.616c1.867,-0.411 3.267,-0.616 4.201,-0.616c2.683,-0 4.959,1.114 6.826,3.343c1.867,2.229 2.801,4.985 2.801,8.27c-0,3.988 -1.167,7.126 -3.501,9.414c-2.334,2.287 -5.426,3.431 -9.277,3.431c-2.217,-0 -5.951,-0.352 -11.203,-1.056c-3.5,-0.469 -7.001,-0.704 -10.502,-0.704c-2.217,0 -5.485,0.293 -9.802,0.88c-4.318,0.587 -7.585,0.88 -9.802,0.88c-3.501,-0 -6.331,-1.173 -8.49,-3.519c-2.159,-2.346 -3.238,-5.455 -3.238,-9.326c-0,-7.273 2.392,-10.909 7.177,-10.909c0.7,-0 1.225,0.058 1.575,0.176l1.225,-0c0.467,0.117 0.759,0.176 0.875,0.176c1.867,-0 2.976,-1.291 3.326,-3.871c0.117,-1.173 0.175,-3.168 0.175,-5.983l0,-66.335l-24.33,86.57c-2.101,7.507 -5.543,11.261 -10.328,11.261l-11.202,0c-4.668,0 -7.877,-3.343 -9.627,-10.029l-23.281,-87.802l0,66.335c0,5.513 0.526,8.622 1.576,9.326c0.35,0.352 0.992,0.528 1.925,0.528c0.234,-0 0.584,-0.059 1.05,-0.176l1.051,-0c0.35,-0.118 0.875,-0.176 1.575,-0.176c4.668,-0 7.002,3.577 7.002,10.733c-0,3.988 -1.051,7.156 -3.151,9.502c-2.101,2.346 -4.901,3.519 -8.402,3.519c-1.634,-0 -3.734,-0.176 -6.301,-0.528c-3.268,-0.469 -5.31,-0.763 -6.127,-0.88c-2.45,-0.234 -5.251,-0.352 -8.402,-0.352c-3.967,0 -7.293,0.176 -9.977,0.528c-7.235,0.939 -10.852,1.408 -10.852,1.408c-3.618,-0 -6.594,-1.232 -8.927,-3.695c-2.334,-2.464 -3.501,-5.572 -3.501,-9.326c-0,-3.402 0.904,-6.188 2.713,-8.358c1.809,-2.17 4.113,-3.255 6.914,-3.255c0.934,-0 2.305,0.205 4.113,0.616c1.809,0.41 3.18,0.616 4.114,0.616c2.334,-0 3.792,-1.525 4.376,-4.575c0.233,-1.173 0.35,-3.637 0.35,-7.39l-0,-48.74c-0,-3.754 -0.117,-6.159 -0.35,-7.215c-0.584,-3.049 -2.042,-4.574 -4.376,-4.574c-0.934,-0 -2.305,0.205 -4.114,0.615c-1.808,0.411 -3.238,0.616 -4.288,0.616c-2.684,0 -4.93,-1.114 -6.739,-3.343c-1.809,-2.229 -2.713,-4.985 -2.713,-8.27c-0,-8.563 4.317,-12.845 12.953,-12.845c2.8,0 7.468,0.294 14.003,0.88c6.535,0.587 11.436,0.88 14.703,0.88c5.251,-0 10.736,-0.352 16.454,-1.056c3.851,-0.469 6.885,-0.704 9.102,-0.704c2.917,0 4.959,0.704 6.126,2.112c1.167,1.408 2.276,4.34 3.326,8.798Z" style="fill-rule:nonzero;"/><path d="M867.079,556.464c-3.85,-0 -6.418,0.352 -7.701,1.056c-1.751,1.055 -2.626,3.401 -2.626,7.038l0,9.853c0,1.995 0.263,3.49 0.788,4.487c0.525,0.997 1.896,1.496 4.113,1.496c5.135,-0 7.702,-1.877 7.702,-5.631l-0,-2.287c-0.117,-0.704 -0.175,-1.584 -0.175,-2.639c-0,-4.927 2.859,-7.391 8.577,-7.391c5.951,0 8.927,2.992 8.927,8.974c-0,1.642 -0.117,3.461 -0.35,5.455c-0.467,3.871 -0.7,7.449 -0.7,10.733c-0,3.05 0.233,6.921 0.7,11.613c0.467,4.692 0.7,7.977 0.7,9.854c-0,6.921 -3.092,10.381 -9.277,10.381c-5.835,0 -8.752,-2.991 -8.752,-8.974l-0,-0.879c-0,-0.587 0.117,-1.995 0.35,-4.223c-0,-2.816 -2.509,-4.223 -7.527,-4.223c-3.384,-0 -5.076,1.877 -5.076,5.63l0,13.197c0,4.106 0.729,6.892 2.188,8.358c1.459,1.466 4.172,2.199 8.139,2.199l10.153,0c7.468,0 12.69,-0.645 15.666,-1.935c2.975,-1.29 4.463,-3.578 4.463,-6.862c0,-1.643 -0.175,-3.607 -0.525,-5.895c-0.35,-2.287 -0.525,-4.194 -0.525,-5.718c0,-4.341 1.225,-7.743 3.676,-10.206c2.45,-2.463 5.776,-3.695 9.977,-3.695c8.519,-0 12.778,4.692 12.778,14.076c-0,3.05 -0.175,6.276 -0.525,9.678c-0.584,5.631 -0.875,9.15 -0.875,10.557c-0,1.291 0.291,3.813 0.875,7.567c0.35,2.228 0.525,4.516 0.525,6.862c-0,5.513 -3.442,8.27 -10.327,8.27c-2.217,-0 -5.893,-0.176 -11.028,-0.528c-8.518,-0.587 -22.113,-0.997 -40.784,-1.232l-15.578,0c-5.835,0 -10.678,0.176 -14.529,0.528l-13.303,1.232c-0.116,-0 -0.35,0.058 -0.7,0.176l-0.875,-0c-3.618,-0 -6.564,-1.232 -8.84,-3.695c-2.275,-2.464 -3.413,-5.572 -3.413,-9.326c0,-3.285 0.905,-6.041 2.713,-8.27c1.809,-2.229 4.114,-3.343 6.914,-3.343c0.934,-0 2.334,0.205 4.201,0.616c1.867,0.41 3.209,0.616 4.026,0.616c3.151,-0 4.726,-3.989 4.726,-11.965l0,-48.74c0,-7.86 -1.575,-11.789 -4.726,-11.789c-0.7,-0 -2.1,0.234 -4.201,0.703c-1.517,0.352 -2.859,0.528 -4.026,0.528c-2.684,0 -4.959,-1.114 -6.826,-3.343c-1.867,-2.229 -2.801,-4.985 -2.801,-8.27c0,-8.563 4.259,-12.845 12.778,-12.845c1.984,0 6.01,0.235 12.078,0.704c9.102,0.704 17.912,1.056 26.431,1.056c0.817,-0 7.818,-0.176 21.004,-0.528c9.569,-0.235 15.871,-0.469 18.905,-0.704c5.017,-0.352 10.269,-0.528 15.753,-0.528c6.535,0 9.802,2.874 9.802,8.622c0,1.877 -0.204,4.634 -0.612,8.27c-0.409,3.637 -0.613,6.393 -0.613,8.27c0,1.877 0.263,4.546 0.788,8.006c0.525,3.461 0.787,6.071 0.787,7.83c0,3.402 -1.254,6.276 -3.763,8.622c-2.509,2.346 -5.63,3.519 -9.364,3.519c-8.752,0 -13.128,-4.516 -13.128,-13.548c-0,-1.525 0.262,-3.637 0.787,-6.335c0.525,-2.698 0.788,-4.692 0.788,-5.982c-0,-2.581 -1.342,-4.165 -4.026,-4.751c-0.934,-0.235 -3.384,-0.352 -7.352,-0.352l-17.329,-0Z" style="fill-rule:nonzero;"/></g><g><path d="M3.541,642.639l0,-451.945c0,-19.705 -0.59,-44.495 -1.77,-74.371c-1.181,-29.875 -1.771,-54.03 -1.771,-72.463c-0,-20.341 2.656,-33.054 7.967,-38.139c3.541,-3.178 9.443,-4.768 17.706,-4.768c7.672,0 19.033,0.795 34.083,2.384c15.049,1.589 26.41,2.384 34.083,2.384c30.099,-0 52.821,-0.954 68.165,-2.861c15.345,-1.907 30.099,-2.86 44.264,-2.86c31.279,0 46.919,11.124 46.919,33.371c-0,20.977 -16.525,31.465 -49.575,31.465c-10.033,0 -24.493,-1.589 -43.378,-4.767c-18.886,-3.179 -33.345,-4.768 -43.378,-4.768c-16.525,0 -27.591,2.384 -33.198,7.151c-5.607,4.768 -9,15.733 -10.181,32.895l-3.541,51.487c-1.77,25.426 -2.656,66.426 -2.656,122.998l0,293.669c0,56.573 0.886,97.572 2.656,122.998l3.541,51.487c1.181,17.163 5.017,28.287 11.509,33.372c4.721,3.814 15.345,5.721 31.87,5.721c10.033,-0 24.64,-1.431 43.82,-4.291c19.181,-2.86 33.493,-4.291 42.936,-4.291c33.05,0 49.575,10.489 49.575,31.465c-0,22.248 -15.64,33.371 -46.919,33.371c-11.804,0 -29.509,-0.953 -53.116,-2.86c-23.608,-1.907 -41.313,-2.86 -53.117,-2.86l-7.082,-0c-7.672,-0 -19.033,0.794 -34.083,2.383c-15.049,1.589 -26.115,2.384 -33.197,2.384c-11.804,-0 -19.476,-4.45 -23.017,-13.349c-1.771,-5.085 -2.656,-14.937 -2.656,-29.557c-0,-19.07 0.59,-43.542 1.771,-73.418c1.18,-29.875 1.77,-54.347 1.77,-73.417Z" style="fill-rule:nonzero;"/><path d="M1180.06,686.499c1.77,-26.062 2.656,-67.061 2.656,-122.998l-0,-293.669c-0,-55.937 -0.886,-96.936 -2.656,-122.998l-3.541,-51.487c-1.181,-17.162 -4.574,-28.127 -10.181,-32.895c-5.607,-4.767 -16.673,-7.151 -33.198,-7.151c-10.033,0 -24.64,1.589 -43.82,4.768c-19.181,3.178 -33.493,4.767 -42.936,4.767c-33.05,0 -49.575,-10.488 -49.575,-31.465c0,-22.247 15.64,-33.371 46.919,-33.371c13.574,0 28.329,0.953 44.264,2.86c15.935,1.907 38.657,2.861 68.165,2.861c7.673,-0 19.034,-0.795 34.083,-2.384c15.05,-1.589 26.411,-2.384 34.083,-2.384c11.804,0 19.476,4.45 23.017,13.349c1.771,5.085 2.656,14.938 2.656,29.558c0,19.705 -0.59,43.859 -1.771,72.463c-1.18,28.605 -1.77,80.728 -1.77,156.37l-0,287.948c-0,73.735 0.59,125.699 1.77,155.892c1.181,30.193 1.771,54.507 1.771,72.941c0,20.34 -2.213,32.577 -6.64,36.708c-4.426,4.132 -10.77,6.198 -19.033,6.198c-7.672,-0 -18.886,-0.795 -33.64,-2.384c-14.755,-1.589 -25.968,-2.383 -33.64,-2.383c-30.69,-0 -53.707,0.953 -69.051,2.86c-15.345,1.907 -30.099,2.86 -44.264,2.86c-31.279,0 -46.919,-11.123 -46.919,-33.371c0,-20.976 16.525,-31.465 49.575,-31.465c8.853,0 22.87,1.431 42.05,4.291c19.181,2.86 34.083,4.291 44.706,4.291c16.525,-0 27.591,-2.225 33.198,-6.675c5.607,-4.449 9,-15.255 10.181,-32.418l3.541,-51.487Z" style="fill-rule:nonzero;"/></g></g></svg>